<svg width="245" height="54" xmlns="http://www.w3.org/2000/svg" class="iconLeft">
 <!---->
 <defs>
  <!---->
  <linearGradient y2="0%" x2="100%" y1="0%" x1="0%" id="fec0892e-ecbe-40f0-8826-6f6a11fd007f" gradientTransform="rotate(25)">
   <stop stop-color="#122663" offset="0%"/>
   <stop stop-color="#5DD7AD" offset="100%"/>
  </linearGradient>
 </defs>
 <defs>
  <!---->
 </defs>

 <!---->
 <g>
  <title>background</title>
  <rect fill="none" id="canvas_background" height="56" width="247" y="-1" x="-1"/>
 </g>
 <g>
  <title>Layer 1</title>
  <rect stroke="null" id="svg_1" class="logo-background-square" height="54" width="245" y="0" x="0" fill="none"/>
  <g transform="matrix(2.4622924084940285,0,0,2.4622924084940285,111.86849245628875,127.34690913738743) " fill="#000000" id="74c16c66-a832-4186-84ec-d1298f94dd5c">
   <path id="svg_2" d="m-10.81152,-40.36732c0,2.76 2.27,4.96 5.11,4.96c1.32,0 2.67,-0.52 3.64,-1.29l0,-3.55l-0.99,0l0,2.95c-0.76,0.52 -1.7,0.83 -2.58,0.83c-2.24,0 -4.05,-1.73 -4.05,-3.9c0,-2.15 1.8,-3.87 4.04,-3.87c1.09,0 2.17,0.42 2.96,1.13l0.65,-0.84c-0.94,-0.83 -2.26,-1.34 -3.61,-1.34c-2.89,0 -5.17,2.17 -5.17,4.92zm11.31,4.9l1.09,0l0,-3.92c0.13,-1.45 1.1,-2.42 2.65,-2.39l0,-1.11c-1.25,0.02 -2.16,0.61 -2.65,1.68l0,-1.63l-1.09,0l0,7.37zm4.47,-3.68c0,2.2 1.5,3.73 3.67,3.73c1.23,0 2.26,-0.45 2.96,-1.24l-0.6,-0.64c-0.57,0.6 -1.37,0.92 -2.28,0.92c-1.43,0 -2.48,-0.91 -2.67,-2.35l6.02,0c0.11,-2.5 -1.07,-4.16 -3.45,-4.14c-2.14,0 -3.65,1.52 -3.65,3.72zm1.08,-0.47c0.16,-1.4 1.17,-2.31 2.57,-2.31c1.44,0 2.4,0.89 2.47,2.31l-5.04,0zm7.15,0.47c0,2.2 1.5,3.73 3.67,3.73c1.23,0 2.27,-0.45 2.97,-1.24l-0.61,-0.64c-0.57,0.6 -1.37,0.92 -2.28,0.92c-1.43,0 -2.48,-0.91 -2.67,-2.35l6.02,0c0.11,-2.5 -1.07,-4.16 -3.45,-4.14c-2.14,0 -3.65,1.52 -3.65,3.72zm1.08,-0.47c0.17,-1.4 1.17,-2.31 2.57,-2.31c1.45,0 2.4,0.89 2.47,2.31l-5.04,0zm7.89,4.15l1.1,0l0,-3.96c0.12,-1.4 1.02,-2.35 2.47,-2.36c1.31,0 2.09,0.77 2.09,2.07l0,4.25l1.09,0l0,-4.55c0,-1.77 -1.03,-2.87 -2.8,-2.87c-1.34,0.02 -2.34,0.55 -2.85,1.67l0,-1.62l-1.1,0l0,7.37zm8.39,-6.25l1.06,0l0,4.21c0,1.46 0.8,2.1 1.88,2.1c0.59,-0.01 1.15,-0.21 1.67,-0.56l-0.31,-0.88c-0.41,0.25 -0.8,0.38 -1.18,0.38c-0.63,0 -0.98,-0.34 -0.98,-1.24l0,-4.01l2.34,0l0,-0.9l-2.34,0.01l0,-1.94l-1.08,0l0,1.94l-1.06,0l0,0.89zm5.52,2.57c0,2.2 1.49,3.73 3.66,3.73c1.24,0 2.27,-0.45 2.97,-1.24l-0.6,-0.64c-0.57,0.6 -1.37,0.92 -2.28,0.92c-1.43,0 -2.48,-0.91 -2.68,-2.35l6.02,0c0.12,-2.5 -1.06,-4.16 -3.44,-4.14c-2.14,0 -3.65,1.52 -3.65,3.72zm1.07,-0.47c0.17,-1.4 1.18,-2.31 2.58,-2.31c1.44,0 2.39,0.89 2.46,2.31l-5.04,0zm7.9,4.15l1.09,0l0,-3.92c0.13,-1.45 1.09,-2.42 2.65,-2.39l0,-1.11c-1.25,0.02 -2.16,0.61 -2.65,1.68l0,-1.63l-1.09,0l0,7.37z"/>
  </g>
  <g transform="matrix(0.6796514768819931,0,0,0.6796514768819931,36.14127273798386,116.01708262783683) " fill="url(#fec0892e-ecbe-40f0-8826-6f6a11fd007f)" id="bd68996d-5dbd-418a-98fc-9238edfc9a89">
   <path id="svg_3" d="m-35.36459,-142.43876s-4.161,33.195 30.567,33.195c0,0 8.655,-33.195 -30.567,-33.195zm88.241,-13.91c-47.241,0 -51.611,29.712 -50.744,44.967c7.981,-23.02 29.738,-28.101 29.738,-28.101c-20.77,12.557 -25.03,35.225 -25.307,36.825c52.753,-2.036 46.313,-53.691 46.313,-53.691z"/>
  </g>
 </g>
</svg>